# xmcd
#
# Track frame offsets:
#	150
#	34415
#	61546
#	86589
#	118936
#	147110
#	177497
#	206842
#	233192
#	258237
#	285365
#
# Disc length: 4156 seconds
#
# Revision: 0
# Processed by: cddbd v1.5.2PL0 Copyright (c) Steve Scherf et al.
# Submitted via: EasyCDDAExtractor 12.0.1.1
#
DISCID=9c103a0b
DTITLE=Various Artist - LIVE AS...- MIXED BY MATT HARDWICK [CD-1)
DYEAR=2007
DGENRE=Trance
TTITLE0=Marcus Shultz - Without You Near (Perry O’Neil Mix)
TTITLE1=Maor Levi - Reflect
TTITLE2=Solar Movement - Close Your Eyes
TTITLE3=Kenidel Lopez - Heaven’s Kaliber (Thomas Datt Remix)
TTITLE4=Headstrong - The Truth (David West Mix)
TTITLE5=Signalrunners - Aria Epica (Bart Claesson Mix)
TTITLE6=Gate 42 - Adversary
TTITLE7=FKN Feat. Jahala - Why (Aly and Fila Mix)
TTITLE8=Kirsty Hawkshaw - Outsider (Jose Amnesia Mix)
TTITLE9=Ben Gold - Roll Cage
TTITLE10=John O’Callaghan - Space And Time (Marc Van Linden Mix)
EXTD=
EXTT0=
EXTT1=
EXTT2=
EXTT3=
EXTT4=
EXTT5=
EXTT6=
EXTT7=
EXTT8=
EXTT9=
EXTT10=
PLAYORDER=
